<?xml version="1.0" standalone="no"?>
<!DOCTYPE svg PUBLIC "-//W3C//DTD SVG 20010904//EN"
 "http://www.w3.org/TR/2001/REC-SVG-20010904/DTD/svg10.dtd">
<svg version="1.0" xmlns="http://www.w3.org/2000/svg"
 width="4000.000000pt" height="4000.000000pt" viewBox="0 0 4000.000000 4000.000000"
 preserveAspectRatio="xMidYMid meet">
<metadata>
Created by potrace 1.14, written by Peter Selinger 2001-2017
</metadata>
<g transform="translate(0.000000,4000.000000) scale(0.100000,-0.100000)"
fill="#000000" stroke="none">
<path d="M0 20000 l0 -20000 19998 2 19997 3 3 19998 2 19997 -20000 0 -20000
0 0 -20000z m9815 13540 c65 -40 81 -73 141 -295 75 -282 73 -338 -16 -419
-68 -61 -154 -72 -238 -30 -70 35 -96 72 -125 179 -13 50 -39 144 -57 210 -48
177 -41 250 28 321 67 67 188 83 267 34z m930 -543 c62 -35 98 -95 103 -170 3
-53 0 -70 -25 -117 -42 -80 -81 -99 -328 -165 -242 -65 -294 -68 -364 -22 -90
60 -121 184 -70 284 40 76 79 97 304 157 235 63 315 70 380 33z m-1140 -268
c55 -14 122 -70 146 -123 10 -23 19 -63 19 -91 0 -105 -63 -181 -177 -214
-241 -69 -384 -104 -434 -104 -188 -1 -280 232 -145 367 45 45 57 50 406 142
146 39 130 37 185 23z m491 -288 c56 -26 93 -76 114 -156 4 -16 29 -109 54
-207 63 -241 61 -285 -18 -368 -51 -54 -120 -75 -195 -59 -43 9 -63 20 -100
58 -27 26 -52 63 -59 86 -33 105 -112 423 -112 450 0 83 51 163 125 196 52 24
138 24 191 0z m21661 -626 c224 -130 424 -249 443 -264 19 -15 45 -47 58 -72
20 -38 23 -54 19 -117 -6 -111 -13 -117 -368 -325 -582 -340 -561 -329 -628
-329 -88 0 -166 48 -197 121 -19 45 -18 144 2 184 30 59 65 85 305 224 131 76
239 141 239 144 0 4 -111 71 -246 149 -169 99 -254 154 -271 177 -35 45 -52
116 -44 173 9 56 20 76 64 118 46 45 99 63 164 58 46 -4 97 -31 460 -241z
m-1407 -1161 c49 -20 107 -85 120 -135 7 -24 9 -3676 8 -10616 l-3 -10579 -28
-42 c-15 -23 -46 -54 -69 -69 l-42 -28 -10890 -3 c-5990 -1 -10906 0 -10924 3
-42 8 -110 68 -133 120 -18 39 -19 407 -19 10621 l0 10580 26 52 c28 57 64 87
127 109 36 11 1658 13 10915 8 9945 -5 10876 -7 10912 -21z m2918 -10275 c126
-39 219 -96 312 -189 95 -96 141 -166 180 -278 104 -293 26 -598 -205 -810
-201 -184 -507 -238 -768 -136 -152 60 -309 206 -382 358 -59 123 -77 199 -78
326 -2 166 39 302 131 437 107 157 307 284 496 314 78 12 238 1 314 -22z
m-26308 -269 c29 -104 58 -190 64 -190 6 0 99 27 206 59 107 33 198 57 201 53
8 -9 109 -357 109 -376 0 -9 -26 -22 -72 -36 -198 -59 -328 -102 -328 -108 0
-4 19 -68 41 -142 69 -230 72 -240 68 -243 -9 -7 -411 -128 -414 -125 -2 2
-26 86 -55 188 -29 102 -56 189 -60 194 -7 7 -208 -47 -368 -99 l-42 -14 -15
36 c-8 19 -15 41 -15 47 0 6 -20 76 -44 156 -24 80 -41 148 -37 152 6 7 185
64 331 105 30 9 59 19 63 23 5 4 -15 83 -44 176 -29 93 -53 180 -53 193 -1 23
10 28 184 82 102 31 194 57 206 58 18 1 26 -20 74 -189z m22585 -12161 c35
-18 59 -39 80 -74 26 -42 30 -58 30 -120 0 -61 -4 -77 -28 -113 -15 -23 -46
-54 -69 -69 l-42 -28 -636 0 -636 0 -42 28 c-23 15 -54 46 -69 69 -24 36 -28
52 -28 112 0 80 25 138 77 176 67 49 63 49 708 47 l606 -2 49 -26z m-16943
-370 c94 -20 209 -80 275 -145 70 -69 106 -123 138 -208 71 -190 45 -398 -72
-564 -97 -137 -249 -218 -428 -229 -171 -10 -319 47 -440 171 -112 114 -165
244 -165 406 0 166 53 293 170 411 82 83 181 139 275 157 71 14 185 14 247 1z
m16173 -208 c106 -48 153 -153 121 -264 -16 -57 -70 -118 -121 -137 -13 -5
-577 -10 -1287 -12 -1393 -3 -1296 -7 -1362 58 -113 113 -75 293 76 359 28 12
217 14 1283 14 1192 1 1252 0 1290 -18z"/>
<path d="M8802 19928 l3 -10313 10620 0 10620 0 3 10313 2 10312 -10625 0
-10625 0 2 -10312z m12556 8057 c57 -24 110 -82 127 -139 13 -42 15 -208 15
-1128 l0 -1078 411 0 c262 0 426 -4 453 -11 54 -13 110 -59 136 -110 19 -37
20 -60 20 -581 0 -504 -2 -546 -19 -583 -23 -51 -79 -101 -128 -114 -24 -7
-230 -11 -571 -11 -581 0 -574 -1 -635 58 -63 60 -62 47 -67 517 l-5 430
-1137 5 -1136 5 -43 30 c-26 18 -53 50 -68 80 l-26 49 -3 1190 c-3 1310 -5
1258 58 1330 17 19 49 44 73 55 42 21 44 21 1275 21 1090 0 1237 -2 1270 -15z
m6130 -13 c63 -34 127 -96 154 -150 l23 -47 0 -720 0 -720 -28 -57 c-32 -65
-89 -121 -156 -152 -45 -20 -59 -21 -563 -24 l-518 -3 0 -808 c0 -909 4 -861
-76 -950 -26 -29 -69 -62 -102 -78 l-57 -28 -995 0 -995 0 -56 26 c-66 31
-119 83 -151 147 l-23 47 0 1015 0 1015 28 57 c31 63 80 111 154 148 l48 25
807 3 807 2 3 528 3 527 23 47 c40 79 114 142 202 169 14 4 340 7 725 6 l700
-2 43 -23z m-11247 -69 c44 -19 101 -75 120 -118 18 -38 19 -130 19 -2140 0
-2019 -1 -2102 -19 -2141 -23 -50 -93 -111 -140 -121 -20 -5 -1082 -8 -2361
-8 l-2325 0 -40 22 c-55 29 -91 70 -110 122 -13 39 -15 277 -15 2126 0 1849 2
2087 15 2126 26 72 87 124 165 140 19 4 1077 6 2350 5 1758 -1 2321 -4 2341
-13z m2833 -3815 c56 -17 119 -82 135 -138 9 -34 11 -232 9 -831 l-3 -785 -28
-42 c-15 -23 -46 -54 -69 -69 l-42 -28 -800 -3 c-560 -2 -812 0 -839 8 -49 14
-106 65 -128 115 -17 38 -19 87 -19 830 0 751 1 792 19 831 21 46 73 92 123
111 48 17 1584 18 1642 1z m4009 -701 c51 -22 98 -67 118 -115 18 -42 19 -88
19 -1142 l0 -1098 -28 -53 c-20 -39 -41 -62 -77 -84 l-48 -30 -1136 0 c-1253
0 -1159 -5 -1225 61 -66 66 -61 -24 -64 1193 l-2 1103 24 53 c23 51 67 94 116
114 16 6 435 10 1148 10 920 1 1128 -1 1155 -12z m-9928 -887 c32 -16 61 -41
80 -68 l30 -44 5 -746 5 -747 755 -5 c749 -5 755 -5 795 -27 46 -24 75 -54
101 -103 18 -33 19 -75 19 -900 0 -825 -1 -867 -19 -900 -26 -49 -65 -89 -106
-108 -31 -15 -112 -18 -790 -22 l-755 -5 -5 -765 c-5 -748 -5 -766 -25 -800
-33 -55 -96 -98 -157 -105 -29 -3 -444 -5 -923 -3 -788 3 -873 5 -900 20 -42
23 -80 62 -102 106 -17 35 -18 85 -21 897 -2 600 1 874 8 905 16 66 55 116
113 145 l51 25 773 0 773 0 0 610 0 610 -742 0 c-488 0 -756 4 -781 11 -47 13
-102 60 -130 113 l-22 41 0 865 0 865 28 47 c15 26 41 57 58 69 69 49 57 48
974 46 l860 -2 50 -25z m14470 0 c38 -20 58 -39 83 -80 l32 -55 -2 -876 -3
-875 -28 -42 c-15 -23 -46 -54 -69 -69 l-42 -28 -763 -3 -763 -2 0 -610 0
-610 763 0 c520 0 775 -4 802 -11 56 -15 128 -92 143 -152 17 -66 17 -1709 0
-1775 -16 -64 -86 -134 -150 -150 -67 -17 -1749 -17 -1816 0 -68 17 -136 87
-151 157 -7 36 -11 281 -11 781 l0 730 -742 0 c-726 0 -744 1 -788 21 -56 25
-86 53 -113 104 l-22 40 0 865 0 865 22 40 c24 46 54 75 103 101 33 18 75 19
788 22 l752 3 0 712 c0 392 5 730 10 751 18 79 85 147 163 167 18 4 419 7 892
6 l861 -2 49 -25z m-9388 -1665 c51 -26 88 -65 111 -118 19 -44 17 -2212 -2
-2258 -22 -54 -54 -88 -107 -114 l-48 -25 -1124 0 -1123 0 -50 25 c-57 29 -98
82 -114 146 -8 31 -10 366 -8 1124 l3 1080 22 40 c28 53 72 93 119 110 32 12
233 14 1155 15 l1115 0 51 -25z m1632 -3918 c24 -12 57 -42 75 -65 l31 -44 3
-669 2 -669 335 0 335 0 0 341 c0 379 0 379 68 445 64 62 84 64 581 64 245 0
463 -4 484 -9 61 -15 117 -60 144 -116 l23 -50 0 -465 c0 -271 -4 -480 -10
-500 -13 -49 -66 -109 -114 -131 -37 -17 -72 -19 -393 -19 l-352 0 -3 -457
c-3 -425 -4 -461 -22 -493 -26 -49 -55 -79 -101 -103 -39 -21 -51 -22 -507
-25 l-468 -3 0 -969 c0 -575 -4 -979 -9 -993 -16 -40 -73 -99 -116 -118 -38
-18 -98 -19 -1156 -19 -824 0 -1125 3 -1150 12 -55 19 -101 59 -125 113 l-24
50 0 1090 c0 677 4 1103 10 1125 12 44 62 105 103 128 30 16 109 17 1032 22
l1000 5 3 318 2 317 -668 0 -668 0 -51 25 c-59 30 -97 79 -112 145 -13 55 -14
1504 -2 1569 12 59 57 120 110 148 l44 23 812 0 812 0 42 -23z m-3598 -689
c46 -27 73 -58 96 -112 10 -22 13 -467 13 -2127 l0 -2099 -22 -46 c-24 -52
-81 -99 -138 -114 -25 -7 -829 -9 -2366 -8 l-2329 3 -45 25 c-28 16 -55 43
-75 74 l-30 49 -3 2106 -2 2106 26 52 c14 29 38 62 54 73 72 51 -67 49 2440
47 l2335 -2 46 -27z m11524 1 c30 -15 62 -42 80 -68 l30 -43 0 -2128 0 -2128
-30 -44 c-19 -27 -48 -52 -80 -68 l-50 -25 -2315 -3 c-1647 -2 -2328 1 -2360
8 -66 16 -116 55 -145 113 l-25 51 0 2085 c0 1451 3 2098 11 2125 15 55 82
123 138 140 39 13 384 14 2371 13 l2326 -2 49 -26z"/>
<path d="M19120 26615 l0 -945 968 2 967 3 3 943 2 942 -970 0 -970 0 0 -945z"/>
<path d="M21530 24935 l0 -265 280 0 280 0 0 265 0 265 -280 0 -280 0 0 -265z"/>
<path d="M26220 27050 l0 -510 510 0 510 0 0 510 0 510 -510 0 -510 0 0 -510z"/>
<path d="M24377 26273 c-4 -3 -7 -366 -7 -805 l0 -798 800 0 800 0 0 805 0
805 -793 0 c-437 0 -797 -3 -800 -7z"/>
<path d="M11810 25645 l0 -1835 2068 2 2067 3 3 1833 2 1832 -2070 0 -2070 0
0 -1835z m3345 1358 c46 -24 75 -54 101 -103 18 -34 19 -86 22 -1238 1 -790
-1 -1217 -8 -1241 -15 -58 -62 -115 -114 -139 l-46 -22 -1237 0 -1238 0 -52
30 c-36 21 -61 44 -80 77 l-28 48 0 1225 c0 1177 1 1226 19 1260 35 66 82 104
151 121 17 4 579 6 1250 6 l1220 -2 40 -22z"/>
<path d="M12910 25645 l0 -945 965 0 965 0 0 945 0 945 -965 0 -965 0 0 -945z"/>
<path d="M17720 23145 l0 -515 535 0 535 0 0 515 0 515 -535 0 -535 0 0 -515z"/>
<path d="M21072 22133 l3 -828 858 -3 857 -2 0 830 0 830 -860 0 -860 0 2
-827z"/>
<path d="M11626 22083 c-3 -4 -6 -269 -6 -590 l0 -583 610 0 610 0 -2 588 -3
587 -601 2 c-331 1 -604 -1 -608 -4z"/>
<path d="M13300 19860 l0 -590 605 0 605 0 0 590 0 590 -605 0 -605 0 0 -590z"/>
<path d="M11580 18200 l0 -610 630 0 630 0 0 610 0 610 -630 0 -630 0 0 -610z"/>
<path d="M26097 22083 c-4 -3 -7 -269 -7 -590 l0 -583 610 0 610 0 -2 588 -3
587 -601 3 c-330 1 -604 -1 -607 -5z"/>
<path d="M24420 19860 l0 -590 605 0 605 0 0 590 0 590 -605 0 -605 0 0 -590z"/>
<path d="M26090 18200 l0 -610 630 0 630 0 0 610 0 610 -630 0 -630 0 0 -610z"/>
<path d="M16210 19590 l0 -830 860 0 860 0 0 830 0 830 -860 0 -860 0 0 -830z"/>
<path d="M18480 15985 l0 -515 535 0 535 0 0 515 0 515 -535 0 -535 0 0 -515z"/>
<path d="M21084 15867 c-2 -7 -3 -98 -2 -202 l3 -190 218 -3 217 -2 0 205 0
205 -215 0 c-166 0 -217 -3 -221 -13z"/>
<path d="M19985 15017 c-3 -7 -4 -149 -3 -317 l3 -305 328 -3 327 -2 0 320 0
320 -325 0 c-253 0 -327 -3 -330 -13z"/>
<path d="M17840 13120 l0 -830 855 0 855 0 0 830 0 830 -855 0 -855 0 0 -830z"/>
<path d="M11810 13990 l0 -1830 2070 0 2070 0 -2 1828 -3 1827 -2067 3 -2068
2 0 -1830z m3371 1345 c27 -19 54 -50 71 -84 l28 -53 0 -1207 c0 -1192 -1
-1207 -21 -1251 -25 -56 -53 -86 -101 -111 -36 -18 -78 -19 -1283 -19 -1213 0
-1247 1 -1284 19 -50 26 -97 81 -110 128 -7 26 -11 429 -11 1233 1 972 3 1202
14 1233 20 55 60 102 108 126 l43 21 1252 -2 1251 -3 43 -30z"/>
<path d="M12910 13990 l0 -940 965 0 965 0 0 940 0 940 -965 0 -965 0 0 -940z"/>
<path d="M23340 13990 l0 -1830 2070 0 2070 0 -2 1828 -3 1827 -2067 3 -2068
2 0 -1830z m3351 1385 c24 -9 59 -30 76 -47 68 -65 64 18 61 -1359 l-3 -1246
-29 -42 c-16 -23 -50 -54 -75 -69 l-46 -27 -1270 0 c-1183 0 -1272 1 -1301 17
-44 24 -102 94 -114 137 -6 23 -10 481 -10 1256 l0 1220 24 51 c13 28 37 61
54 73 75 53 1 50 1343 51 1098 0 1252 -2 1290 -15z"/>
<path d="M24412 13988 l3 -963 993 -3 992 -2 0 965 0 965 -995 0 -995 0 2
-962z"/>
<path d="M32963 19952 c-128 -46 -203 -154 -203 -293 0 -230 236 -377 444
-275 219 107 220 444 1 551 -74 37 -169 43 -242 17z"/>
<path d="M6880 19870 c-69 -21 -158 -47 -197 -59 -40 -12 -73 -27 -73 -33 0
-13 109 -371 115 -376 2 -2 92 23 202 56 186 56 198 61 197 83 -2 38 -100 363
-110 365 -5 1 -65 -15 -134 -36z"/>
<path d="M12424 7136 c-47 -21 -78 -71 -78 -126 0 -149 190 -192 260 -58 28
55 8 140 -42 173 -34 22 -103 28 -140 11z"/>
</g>
</svg>
